<mxfile host="app.diagrams.net" agent="Mozilla/5.0 (Macintosh; Intel Mac OS X 10_15_7) AppleWebKit/537.36 (KHTML, like Gecko) Chrome/137.0.0.0 Safari/537.36" version="26.1.0">
  <diagram name="Page-1" id="DLOGIAq8vPEPJY1FGp4w">
    <mxGraphModel dx="1434" dy="761" grid="1" gridSize="10" guides="1" tooltips="1" connect="1" arrows="1" fold="1" page="1" pageScale="1" pageWidth="850" pageHeight="1100" math="0" shadow="0">
      <root>
        <mxCell id="0" />
        <mxCell id="1" parent="0" />
        <mxCell id="-jduLf4xtkM-P0gXbmvX-1" value="Airwallex Service" style="swimlane;whiteSpace=wrap;html=1;" vertex="1" parent="1">
          <mxGeometry x="80" y="160" width="200" height="200" as="geometry" />
        </mxCell>
        <mxCell id="-jduLf4xtkM-P0gXbmvX-3" style="edgeStyle=orthogonalEdgeStyle;rounded=0;orthogonalLoop=1;jettySize=auto;html=1;" edge="1" parent="1" source="-jduLf4xtkM-P0gXbmvX-2">
          <mxGeometry relative="1" as="geometry">
            <mxPoint x="320" y="213" as="targetPoint" />
          </mxGeometry>
        </mxCell>
        <mxCell id="-jduLf4xtkM-P0gXbmvX-2" value=".confirmPayment(URL)" style="text;html=1;align=center;verticalAlign=middle;resizable=0;points=[];autosize=1;strokeColor=none;fillColor=none;" vertex="1" parent="1">
          <mxGeometry x="95" y="198" width="150" height="30" as="geometry" />
        </mxCell>
        <mxCell id="-jduLf4xtkM-P0gXbmvX-5" style="edgeStyle=orthogonalEdgeStyle;rounded=0;orthogonalLoop=1;jettySize=auto;html=1;exitX=1;exitY=0.5;exitDx=0;exitDy=0;entryX=0;entryY=0.5;entryDx=0;entryDy=0;" edge="1" parent="1" source="-jduLf4xtkM-P0gXbmvX-7" target="-jduLf4xtkM-P0gXbmvX-6">
          <mxGeometry relative="1" as="geometry">
            <mxPoint x="480" y="213" as="targetPoint" />
            <mxPoint x="440" y="211.5" as="sourcePoint" />
            <Array as="points">
              <mxPoint x="510" y="212" />
              <mxPoint x="540" y="212" />
              <mxPoint x="540" y="158" />
            </Array>
          </mxGeometry>
        </mxCell>
        <mxCell id="-jduLf4xtkM-P0gXbmvX-6" value="open URL" style="rhombus;whiteSpace=wrap;html=1;" vertex="1" parent="1">
          <mxGeometry x="590" y="118" width="80" height="80" as="geometry" />
        </mxCell>
        <mxCell id="-jduLf4xtkM-P0gXbmvX-7" value="&lt;div&gt;save &lt;b&gt;completion&lt;/b&gt;&lt;/div&gt;&lt;div&gt;(later used in .handleURLCallback)&lt;/div&gt;&lt;div&gt;save &lt;b&gt;returnURL&lt;/b&gt;&lt;/div&gt;&lt;div&gt;(later to match callback)&lt;/div&gt;" style="shape=hexagon;perimeter=hexagonPerimeter2;whiteSpace=wrap;html=1;fixedSize=1;" vertex="1" parent="1">
          <mxGeometry x="320" y="144" width="190" height="138" as="geometry" />
        </mxCell>
        <mxCell id="-jduLf4xtkM-P0gXbmvX-8" value="" style="endArrow=none;dashed=1;html=1;dashPattern=1 3;strokeWidth=2;rounded=0;entryX=1;entryY=0.5;entryDx=0;entryDy=0;exitX=0.462;exitY=0.038;exitDx=0;exitDy=0;exitPerimeter=0;" edge="1" parent="1" source="-jduLf4xtkM-P0gXbmvX-9" target="-jduLf4xtkM-P0gXbmvX-6">
          <mxGeometry width="50" height="50" relative="1" as="geometry">
            <mxPoint x="720" y="240" as="sourcePoint" />
            <mxPoint x="660" y="280" as="targetPoint" />
            <Array as="points">
              <mxPoint x="720" y="160" />
            </Array>
          </mxGeometry>
        </mxCell>
        <mxCell id="-jduLf4xtkM-P0gXbmvX-9" value="User goes through&lt;div&gt;HPP flow&lt;/div&gt;" style="ellipse;shape=cloud;whiteSpace=wrap;html=1;" vertex="1" parent="1">
          <mxGeometry x="660" y="263" width="130" height="80" as="geometry" />
        </mxCell>
        <mxCell id="-jduLf4xtkM-P0gXbmvX-10" value=".handleURLCallback(URL)" style="text;html=1;align=center;verticalAlign=middle;resizable=0;points=[];autosize=1;strokeColor=none;fillColor=none;" vertex="1" parent="1">
          <mxGeometry x="100" y="288" width="160" height="30" as="geometry" />
        </mxCell>
        <mxCell id="-jduLf4xtkM-P0gXbmvX-11" value="" style="endArrow=none;dashed=1;html=1;dashPattern=1 3;strokeWidth=2;rounded=0;entryX=0.115;entryY=0.538;entryDx=0;entryDy=0;entryPerimeter=0;exitX=0.994;exitY=0.5;exitDx=0;exitDy=0;exitPerimeter=0;" edge="1" parent="1" source="-jduLf4xtkM-P0gXbmvX-10" target="-jduLf4xtkM-P0gXbmvX-9">
          <mxGeometry width="50" height="50" relative="1" as="geometry">
            <mxPoint x="610" y="330" as="sourcePoint" />
            <mxPoint x="660" y="280" as="targetPoint" />
          </mxGeometry>
        </mxCell>
        <mxCell id="-jduLf4xtkM-P0gXbmvX-12" value="" style="endArrow=classic;html=1;rounded=0;exitX=0.513;exitY=0.9;exitDx=0;exitDy=0;exitPerimeter=0;" edge="1" parent="1" source="-jduLf4xtkM-P0gXbmvX-10">
          <mxGeometry width="50" height="50" relative="1" as="geometry">
            <mxPoint x="610" y="410" as="sourcePoint" />
            <mxPoint x="320" y="370" as="targetPoint" />
          </mxGeometry>
        </mxCell>
        <mxCell id="-jduLf4xtkM-P0gXbmvX-13" value="If status == .pending&lt;div&gt;{ poll for it }&lt;/div&gt;&lt;div&gt;else&amp;nbsp;&lt;/div&gt;&lt;div&gt;{ dismiss safari&amp;nbsp;&lt;span style=&quot;background-color: transparent; color: light-dark(rgb(0, 0, 0), rgb(255, 255, 255));&quot;&gt;&amp;amp;&amp;nbsp;&lt;/span&gt;&lt;span style=&quot;background-color: transparent; color: light-dark(rgb(0, 0, 0), rgb(255, 255, 255));&quot;&gt;execute &lt;/span&gt;&lt;b style=&quot;background-color: transparent; color: light-dark(rgb(0, 0, 0), rgb(255, 255, 255));&quot;&gt;completion&lt;/b&gt;&lt;span style=&quot;background-color: transparent; color: light-dark(rgb(0, 0, 0), rgb(255, 255, 255));&quot;&gt; }&lt;/span&gt;&lt;/div&gt;" style="shape=hexagon;perimeter=hexagonPerimeter2;whiteSpace=wrap;html=1;fixedSize=1;" vertex="1" parent="1">
          <mxGeometry x="320" y="330" width="240" height="120" as="geometry" />
        </mxCell>
        <mxCell id="-jduLf4xtkM-P0gXbmvX-16" value="Poll:&amp;nbsp;&lt;span style=&quot;background-color: transparent;&quot;&gt;Retrieve a PaymentIntent&lt;/span&gt;&lt;div&gt;&lt;span style=&quot;background-color: transparent; color: light-dark(rgb(0, 0, 0), rgb(255, 255, 255));&quot;&gt;maxChangeCount: 5&lt;/span&gt;&lt;/div&gt;&lt;div&gt;nextPollDelay: 3&lt;/div&gt;" style="rounded=1;whiteSpace=wrap;html=1;" vertex="1" parent="1">
          <mxGeometry x="620" y="360" width="220" height="60" as="geometry" />
        </mxCell>
      </root>
    </mxGraphModel>
  </diagram>
</mxfile>
